<svg width="70" height="70" viewBox="0 0 70 70" fill="none" xmlns="http://www.w3.org/2000/svg">
<path d="M9.66269 25.3126H21.2755C21.4237 21.8086 22.8467 18.4889 25.2635 16.0088C27.6803 13.5288 30.9154 12.0685 34.3302 11.9162V0C20.8463 0.318193 9.97278 11.4758 9.66269 25.3126ZM35.5156 0V11.9162C38.9305 12.0685 42.1656 13.5287 44.5826 16.0088C46.9995 18.4889 48.4226 21.8085 48.5709 25.3126H60.1831C59.8731 11.4758 49.0001 0.318193 35.5156 0ZM21.2755 26.529H9.66269C9.97278 40.3652 20.8463 51.5228 34.3302 51.841V39.9248C30.9155 39.7726 27.6805 38.3124 25.2637 35.8324C22.8469 33.3524 21.4239 30.0329 21.2755 26.529ZM48.5709 26.529C48.4356 29.8246 47.1679 32.9646 44.9923 35.3928L50.9488 41.5049L50.1102 42.3654L44.1537 36.2533C41.7875 38.4858 38.7273 39.7865 35.5156 39.9248V51.841C49.0001 51.5228 59.873 40.3652 60.1831 26.529H48.5709Z" fill="#BB2632"/>
<path d="M44.9894 25.9208C44.9894 26.1251 44.9836 26.3279 44.9719 26.529C44.8268 29.0538 43.7839 31.4363 42.0409 33.2246C40.298 35.013 37.9762 36.083 35.5156 36.2317C35.3194 36.2437 35.1219 36.2497 34.9229 36.2497C34.7238 36.2497 34.5262 36.2437 34.3302 36.2317C31.8696 36.083 29.5478 35.013 27.8049 33.2246C26.0619 31.4363 25.0191 29.0538 24.874 26.529C24.8623 26.3277 24.8564 26.1249 24.8564 25.9208C24.8564 25.7165 24.8623 25.5137 24.874 25.3126C25.0189 22.7877 26.0618 20.4051 27.8047 18.6166C29.5477 16.8281 31.8696 15.7581 34.3302 15.6093C34.5264 15.5973 34.724 15.5913 34.9229 15.5913C35.1221 15.5913 35.3196 15.5973 35.5156 15.6093C37.9763 15.7581 40.2982 16.8281 42.0411 18.6166C43.7841 20.4051 44.8269 22.7877 44.9719 25.3126C44.9836 25.5139 44.9894 25.7167 44.9894 25.9208Z" fill="#333333"/>
<path d="M0 64.4969H4.93093V65.5059H0.990664V66.744H4.16371V67.7529H0.990664V70H0V64.4969Z" fill="#333333"/>
<path d="M5.37778 70V64.4969H6.36099V70H5.37778Z" fill="#333333"/>
<path d="M12.3643 65.567V67.0497C12.3624 67.3322 12.2517 67.6024 12.0563 67.8015C11.8609 68.0005 11.5968 68.1121 11.3215 68.1121H11.031L12.3643 69.7401V70H11.2917L9.74245 68.1121H7.98462V70H7.0014V64.5046H11.3215C11.5968 64.5045 11.861 64.6162 12.0563 64.8153C12.2517 65.0143 12.3624 65.2845 12.3643 65.567ZM8.03676 67.1032H11.3215C11.3286 67.1043 11.3358 67.1036 11.3426 67.1013C11.3494 67.099 11.3556 67.0951 11.3606 67.0899C11.3657 67.0847 11.3695 67.0783 11.3718 67.0714C11.374 67.0644 11.3747 67.057 11.3737 67.0497V65.567C11.3747 65.5598 11.374 65.5524 11.3717 65.5454C11.3695 65.5384 11.3657 65.5321 11.3606 65.5269C11.3556 65.5217 11.3494 65.5178 11.3426 65.5155C11.3358 65.5132 11.3286 65.5125 11.3215 65.5135H8.03676C8.02967 65.5125 8.02245 65.5132 8.01566 65.5155C8.00887 65.5178 8.00271 65.5217 7.99765 65.5269C7.99259 65.5321 7.98878 65.5384 7.98651 65.5454C7.98425 65.5524 7.9836 65.5598 7.98462 65.567V67.0497C7.98359 67.057 7.98424 67.0644 7.9865 67.0714C7.98876 67.0784 7.99257 67.0847 7.99763 67.0899C8.00269 67.0951 8.00886 67.099 8.01565 67.1013C8.02245 67.1036 8.02967 67.1043 8.03676 67.1032Z" fill="#333333"/>
<path d="M18.4795 65.5594V65.9797H17.4889V65.5594C17.4889 65.5238 17.474 65.5059 17.4442 65.5059H14.152C14.1449 65.5049 14.1377 65.5055 14.1309 65.5078C14.1241 65.5102 14.1179 65.5141 14.1128 65.5193C14.1078 65.5245 14.104 65.5308 14.1017 65.5378C14.0995 65.5447 14.0988 65.5521 14.0998 65.5594V66.6905C14.0988 66.6978 14.0994 66.7052 14.1017 66.7122C14.104 66.7192 14.1078 66.7255 14.1128 66.7307C14.1179 66.7359 14.1241 66.7398 14.1309 66.7421C14.1376 66.7444 14.1449 66.7451 14.152 66.744H17.4442C17.7187 66.7443 17.9819 66.8563 18.176 67.0555C18.3701 67.2546 18.4793 67.5247 18.4795 67.8064V68.9376C18.4793 69.2193 18.3701 69.4894 18.176 69.6886C17.9819 69.8877 17.7187 69.9997 17.4442 70H14.152C14.0158 70.0007 13.8808 69.9737 13.7549 69.9206C13.629 69.8675 13.5146 69.7893 13.4183 69.6905C13.322 69.5917 13.2458 69.4743 13.194 69.345C13.1422 69.2158 13.1159 69.0773 13.1166 68.9376V68.5173H14.0998V68.9376C14.0988 68.9449 14.0995 68.9523 14.1017 68.9593C14.104 68.9662 14.1078 68.9726 14.1128 68.9778C14.1179 68.9829 14.1241 68.9869 14.1309 68.9892C14.1377 68.9915 14.1449 68.9922 14.152 68.9911H17.4442C17.474 68.9911 17.4889 68.9733 17.4889 68.9376V67.8064C17.4889 67.7708 17.474 67.7529 17.4442 67.7529H14.152C14.0158 67.7536 13.8808 67.7266 13.7549 67.6735C13.629 67.6204 13.5146 67.5422 13.4183 67.4434C13.322 67.3446 13.2458 67.2272 13.194 67.0979C13.1422 66.9687 13.1159 66.8302 13.1166 66.6905V65.5594C13.1159 65.4197 13.1422 65.2812 13.1939 65.1519C13.2457 65.0227 13.322 64.9053 13.4182 64.8065C13.5145 64.7077 13.6289 64.6295 13.7549 64.5763C13.8808 64.5232 14.0158 64.4962 14.152 64.4969H17.4442C17.7187 64.4972 17.9819 64.6092 18.176 64.8084C18.3701 65.0076 18.4793 65.2777 18.4795 65.5594Z" fill="#333333"/>
<path d="M19.0083 64.4969H24.3712V65.5059H22.1888V70H21.1982V65.5059H19.0083V64.4969Z" fill="#333333"/>
<path d="M27.2239 64.5046H31.544C31.8193 64.5045 32.0834 64.6162 32.2788 64.8153C32.4742 65.0143 32.5849 65.2845 32.5868 65.567V67.0497C32.5849 67.3322 32.4741 67.6024 32.2788 67.8015C32.0834 68.0005 31.8193 68.1121 31.544 68.1121L28.2294 68.1197L28.2071 68.1121V70H27.2239L27.2239 64.5046ZM31.5961 67.0497V65.567C31.5971 65.5598 31.5965 65.5524 31.5942 65.5454C31.5919 65.5384 31.5881 65.5321 31.5831 65.5269C31.578 65.5217 31.5719 65.5178 31.5651 65.5155C31.5583 65.5132 31.5511 65.5125 31.544 65.5135H28.2592C28.2521 65.5125 28.2449 65.5132 28.2381 65.5155C28.2313 65.5178 28.2252 65.5217 28.2201 65.5269C28.2151 65.5321 28.2112 65.5384 28.209 65.5454C28.2067 65.5524 28.2061 65.5598 28.2071 65.567V67.0497C28.2061 67.057 28.2067 67.0644 28.209 67.0714C28.2112 67.0784 28.215 67.0847 28.2201 67.0899C28.2252 67.0951 28.2313 67.099 28.2381 67.1013C28.2449 67.1036 28.2521 67.1043 28.2592 67.1032H31.544C31.5511 67.1043 31.5583 67.1036 31.5651 67.1013C31.5719 67.099 31.578 67.0951 31.5831 67.0899C31.5882 67.0847 31.592 67.0783 31.5942 67.0714C31.5965 67.0644 31.5971 67.057 31.5961 67.0497Z" fill="#333333"/>
<path d="M33.1229 70V64.4969H34.1061V70H33.1229Z" fill="#333333"/>
<path d="M35.7746 64.4969H39.0668C39.3413 64.4972 39.6045 64.6092 39.7986 64.8084C39.9927 65.0076 40.1019 65.2777 40.1021 65.5594V68.9376C40.1018 69.2193 39.9927 69.4894 39.7986 69.6885C39.6045 69.8877 39.3413 69.9997 39.0668 70H35.7746C35.6384 70.0007 35.5034 69.9737 35.3775 69.9206C35.2516 69.8675 35.1371 69.7893 35.0408 69.6905C34.9445 69.5917 34.8683 69.4743 34.8165 69.3451C34.7647 69.2158 34.7384 69.0773 34.7392 68.9376V65.5594C34.7384 65.4197 34.7647 65.2812 34.8165 65.1519C34.8683 65.0227 34.9445 64.9053 35.0408 64.8065C35.1371 64.7077 35.2515 64.6294 35.3775 64.5763C35.5034 64.5232 35.6384 64.4962 35.7746 64.4969ZM35.7746 68.9911H39.0668C39.0966 68.9911 39.1115 68.9733 39.1115 68.9376V65.5594C39.1115 65.5238 39.0966 65.5059 39.0668 65.5059H35.7746C35.7675 65.5048 35.7602 65.5055 35.7535 65.5078C35.7467 65.5102 35.7405 65.5141 35.7354 65.5193C35.7304 65.5244 35.7266 65.5308 35.7243 65.5378C35.722 65.5447 35.7214 65.5521 35.7224 65.5594V68.9376C35.7214 68.9449 35.722 68.9523 35.7243 68.9593C35.7266 68.9662 35.7304 68.9726 35.7354 68.9778C35.7405 68.9829 35.7467 68.9869 35.7535 68.9892C35.7602 68.9915 35.7675 68.9922 35.7746 68.9911Z" fill="#333333"/>
<path d="M45.2936 68.5325V64.4969H46.2842V70H45.2117L41.9046 65.9645V70H40.9213V64.4969H41.9939L45.2936 68.5325Z" fill="#333333"/>
<path d="M52.0642 64.4969V65.5059H48.1239V66.744H51.297V67.7529H48.1239V68.9911H52.0642V70H47.1332V64.4969H52.0642Z" fill="#333333"/>
<path d="M57.7696 64.4969V65.5059H53.8294V66.744H57.0024V67.7529H53.8294V68.9911H57.7696V70H52.8387V64.4969H57.7696Z" fill="#333333"/>
<path d="M63.8848 65.567V67.0497C63.8829 67.3322 63.7721 67.6024 63.5768 67.8014C63.3814 68.0005 63.1173 68.1121 62.842 68.1121H62.5515L63.8848 69.7401V70H62.8123L61.2629 68.1121H59.505V70H58.5219V64.5046H62.842C63.1173 64.5045 63.3815 64.6162 63.5768 64.8153C63.7722 65.0143 63.8829 65.2846 63.8848 65.567ZM59.5572 67.1032H62.842C62.8491 67.1043 62.8563 67.1036 62.8631 67.1013C62.8699 67.099 62.8761 67.095 62.8811 67.0899C62.8862 67.0847 62.89 67.0783 62.8923 67.0714C62.8945 67.0644 62.8952 67.057 62.8942 67.0497V65.567C62.8952 65.5598 62.8945 65.5524 62.8923 65.5454C62.89 65.5384 62.8862 65.5321 62.8811 65.5269C62.8761 65.5217 62.8699 65.5178 62.8631 65.5155C62.8563 65.5132 62.8491 65.5125 62.842 65.5135H59.5572C59.5501 65.5125 59.5429 65.5132 59.5361 65.5155C59.5293 65.5178 59.5232 65.5217 59.5181 65.5269C59.513 65.5321 59.5092 65.5384 59.507 65.5454C59.5047 65.5524 59.504 65.5598 59.505 65.567V67.0497C59.504 67.057 59.5047 67.0644 59.5069 67.0714C59.5092 67.0784 59.513 67.0847 59.5181 67.0899C59.5231 67.0951 59.5293 67.099 59.5361 67.1013C59.5429 67.1036 59.5501 67.1043 59.5572 67.1032Z" fill="#333333"/>
<path d="M70 65.5594V65.9797H69.0094V65.5594C69.0094 65.5238 68.9945 65.5059 68.9647 65.5059H65.6724C65.6653 65.5049 65.6581 65.5055 65.6513 65.5079C65.6445 65.5102 65.6384 65.5141 65.6333 65.5193C65.6282 65.5245 65.6244 65.5308 65.6222 65.5378C65.6199 65.5447 65.6192 65.5521 65.6203 65.5594V66.6905C65.6192 66.6978 65.6199 66.7052 65.6221 66.7122C65.6244 66.7191 65.6282 66.7255 65.6333 66.7307C65.6383 66.7359 65.6445 66.7398 65.6513 66.7421C65.6581 66.7444 65.6653 66.7451 65.6724 66.744H68.9647C69.2392 66.7443 69.5024 66.8563 69.6965 67.0555C69.8906 67.2547 69.9997 67.5247 70 67.8064V68.9376C69.9997 69.2193 69.8906 69.4894 69.6965 69.6885C69.5024 69.8877 69.2392 69.9997 68.9647 70H65.6724C65.5362 70.0007 65.4013 69.9737 65.2754 69.9206C65.1494 69.8675 65.035 69.7892 64.9387 69.6905C64.8425 69.5917 64.7662 69.4742 64.7144 69.345C64.6627 69.2158 64.6364 69.0773 64.6371 68.9376V68.5173H65.6203V68.9376C65.6192 68.9449 65.6199 68.9523 65.6222 68.9593C65.6244 68.9662 65.6282 68.9725 65.6333 68.9777C65.6384 68.9829 65.6445 68.9868 65.6513 68.9892C65.6581 68.9915 65.6653 68.9922 65.6724 68.9911H68.9647C68.9945 68.9911 69.0094 68.9733 69.0094 68.9376V67.8064C69.0094 67.7708 68.9945 67.7529 68.9647 67.7529H65.6724C65.5362 67.7536 65.4013 67.7266 65.2754 67.6735C65.1494 67.6204 65.035 67.5421 64.9387 67.4434C64.8425 67.3446 64.7662 67.2271 64.7144 67.0979C64.6627 66.9687 64.6364 66.8302 64.6371 66.6905V65.5594C64.6364 65.4197 64.6627 65.2812 64.7144 65.152C64.7662 65.0227 64.8424 64.9053 64.9387 64.8065C65.035 64.7077 65.1494 64.6295 65.2753 64.5763C65.4013 64.5232 65.5362 64.4962 65.6724 64.4969H68.9647C69.2392 64.4972 69.5024 64.6092 69.6965 64.8084C69.8906 65.0076 69.9998 65.2777 70 65.5594Z" fill="#333333"/>
</svg>
